<?xml version="1.0" encoding="utf-8"?>
<!-- Generator: Adobe Illustrator 23.0.4, SVG Export Plug-In . SVG Version: 6.00 Build 0)  -->
<svg version="1.1" id="レイヤー_1" xmlns="http://www.w3.org/2000/svg" xmlns:xlink="http://www.w3.org/1999/xlink" x="0px"
	 y="0px" viewBox="0 0 847 101.6" style="enable-background:new 0 0 847 101.6;" xml:space="preserve">
<style type="text/css">
	.st0{fill:#2B86CD;}
</style>
<path class="st0" d="M341.7,42v37.4h-2.5V43c-4.8,0-8.6-3.8-8.6-8.6c0-2.8-2.3-5-5.1-5c-2.7,0-4.9,2.2-5,5c0,4.8-3.9,8.6-8.6,8.6
	c0,0,0,0,0,0v36.4h-3.5V7.2h-7V0H288v7.2h-7v72.2h-5.1V45.6L265,34.8v-5.6h-5.6v5.6l-10.8,10.8v30.7l-31.4-27.7
	c-2.6-2.3-7.8-3.7-13.5-3.7s-10.8,1.6-13.2,3.9l-20.7,19c-1.4,1.3-4.3,2.2-7.5,2.4s-6.4-0.6-8.2-1.8l-10.4-7.2
	c-2.9-2-7.9-3.1-13.1-3c-5.2,0.1-9.9,1.5-12.4,3.6l-11.6,9.9V42.1H82v37.4h-5.4c0-0.6-0.5-1.2-1.2-1.2c0,0,0,0,0,0h-4v-4.5
	c-1,0.6-2,1.2-3.1,1.6l-1.2-3.2c0.4-0.4,0.7-1,0.6-1.5c0.5-0.2,0.9-0.5,1.3-0.8c0.8,0.6,1.9,0.4,2.5-0.4c0.4-0.5,0.4-1.2,0.2-1.8
	c0.4-0.4,0.7-0.8,1-1.2c1,0.3,2-0.3,2.2-1.3c0.2-0.6,0-1.3-0.5-1.8c0.2-0.5,0.4-1,0.5-1.5c0.8-0.1,1.5-0.7,1.6-1.5
	c0.1-0.8-0.3-1.6-1-2c0-0.3,0-0.5,0-0.8c0-0.3,0-0.5,0-0.8c0.9-0.4,1.3-1.5,0.9-2.4c-0.3-0.6-0.8-1-1.5-1.1c-0.1-0.5-0.3-1-0.5-1.5
	c0.6-0.6,0.7-1.5,0.3-2.2c-0.4-0.7-1.3-1.1-2.1-0.8c-0.3-0.4-0.6-0.8-1-1.2c0.4-0.8,0.2-1.6-0.5-2.2c-0.6-0.5-1.5-0.6-2.2-0.1
	c-0.4-0.3-0.9-0.5-1.3-0.8c0.1-1-0.6-1.9-1.6-2c-0.7-0.1-1.3,0.2-1.7,0.8c-0.5-0.1-1-0.2-1.5-0.3c-0.3-1-1.3-1.5-2.2-1.3
	c-0.6,0.2-1.1,0.7-1.3,1.3c-0.5,0.1-1,0.2-1.5,0.3c-0.6-0.8-1.7-1-2.5-0.5c-0.5,0.4-0.8,1-0.8,1.7c-0.5,0.2-0.9,0.5-1.3,0.8
	c-0.8-0.6-1.9-0.4-2.5,0.4c-0.4,0.5-0.4,1.2-0.2,1.8c-0.3,0.4-0.7,0.8-1,1.2c-1-0.3-2,0.3-2.2,1.3c-0.2,0.6,0,1.3,0.5,1.8
	c-0.2,0.5-0.4,1-0.5,1.5c-0.8,0.1-1.5,0.7-1.6,1.5c-0.1,0.8,0.3,1.6,1,2c0,0.3,0,0.5,0,0.8c0,0.3,0,0.5,0,0.8
	c-0.9,0.4-1.3,1.5-0.9,2.4c0.3,0.6,0.8,1,1.5,1.1c0.1,0.5,0.3,1,0.5,1.5c-0.6,0.6-0.7,1.5-0.3,2.2c0.4,0.7,1.3,1.1,2.1,0.8
	c0.3,0.4,0.6,0.8,1,1.2c-0.4,0.9-0.1,2,0.9,2.4c0.6,0.3,1.3,0.2,1.8-0.2c0.4,0.3,0.9,0.5,1.3,0.8c-0.1,0.6,0.2,1.2,0.6,1.5L54,75.4
	c-1.1-0.4-2.2-1-3.1-1.6v4.5h-4.1c-0.6,0-1.2,0.5-1.2,1.2h-9.1c-3.2-13.9-10.1-50.2,0.4-69.8H17.9c10.5,19.5,3.6,55.9,0.4,69.8H0
	v22.3h358.6V42L341.7,42z M68.4,69L68.4,69c-0.4,0.2-0.7,0.4-1.1,0.6c-0.3-0.4-0.8-0.6-1.3-0.6l-3.2-8.8c0,0,0.1,0,0.1-0.1l5.9,7.1
	C68.3,67.7,68.2,68.4,68.4,69z M70.9,66.8L70.9,66.8c-0.6-0.3-1.2-0.3-1.8,0.1l-5.9-7.1c0.1-0.1,0.2-0.2,0.3-0.3l8,4.6
	c-0.2,0.6-0.1,1.2,0.2,1.7C71.5,66.2,71.2,66.5,70.9,66.8z M73.5,62.9L73.5,62.9c-0.6-0.1-1.3,0.2-1.6,0.7l-8-4.6
	c0.1-0.1,0.1-0.3,0.1-0.4l9.1,1.6c0,0.6,0.3,1.2,0.8,1.6C73.8,62.1,73.6,62.5,73.5,62.9z M74.5,57.1c0,0.2,0,0.5,0,0.7l0,0
	c0,0.2,0,0.4,0,0.6c-0.6,0.1-1.1,0.6-1.3,1.2L64.1,58c0-0.1,0-0.1,0-0.2c0-0.1,0-0.2,0-0.2l9.1-1.6C73.4,56.5,73.9,57,74.5,57.1z
	 M73.5,52.6c0.2,0.4,0.3,0.8,0.4,1.2c-0.5,0.3-0.8,0.9-0.8,1.6L64,57c0-0.1-0.1-0.3-0.1-0.4l8-4.6C72.2,52.5,72.8,52.7,73.5,52.6z
	 M69.2,48.7c0.5,0.3,1.2,0.3,1.8,0.1c0.3,0.3,0.6,0.6,0.8,1c-0.4,0.5-0.5,1.2-0.3,1.7l-8,4.6c-0.1-0.1-0.2-0.2-0.3-0.3L69.2,48.7z
	 M67.3,45.9L67.3,45.9c0.4,0.2,0.7,0.4,1.1,0.6c-0.2,0.6,0,1.2,0.4,1.7l-5.9,7.1c-0.1-0.1-0.3-0.2-0.4-0.2l3.1-8.7
	C66.2,46.6,66.8,46.4,67.3,45.9z M62.8,44.6c0.4,0,0.8,0.1,1.3,0.2c0,0.6,0.4,1.2,0.9,1.5l-3.1,8.7c-0.1,0-0.3-0.1-0.4-0.1v-9.2l0,0
	C62.1,45.5,62.6,45.1,62.8,44.6z M61.4,60.7L61.4,60.7c0.1,0,0.1,0,0.2,0l3.2,8.7c-0.4,0.3-0.7,0.8-0.7,1.4
	c-0.4,0.1-0.8,0.2-1.3,0.2c-0.2-0.6-0.8-1-1.4-1.1V60.7z M58.2,44.8L58.2,44.8c0.4-0.1,0.8-0.2,1.2-0.2c0.2,0.6,0.8,1,1.4,1.1v9.2
	c-0.1,0-0.3,0-0.4,0.1l-3.1-8.7C57.8,46,58.2,45.4,58.2,44.8z M60.8,60.7v9.2c-0.6,0.1-1.1,0.5-1.4,1.1c-0.4,0-0.8-0.1-1.3-0.2
	c0-0.5-0.3-1-0.7-1.4l3.2-8.8C60.7,60.7,60.8,60.7,60.8,60.7z M53.9,46.6L53.9,46.6c0.3-0.2,0.7-0.4,1.1-0.6
	c0.4,0.5,1.1,0.7,1.7,0.5l3.1,8.7c-0.1,0.1-0.3,0.1-0.4,0.2l-5.9-7.1C54,47.8,54.1,47.2,53.9,46.6z M51.4,48.7L51.4,48.7
	c0.6,0.3,1.2,0.2,1.8-0.1l5.9,7.1c-0.1,0.1-0.2,0.2-0.3,0.3l-8-4.6c0.2-0.6,0.1-1.2-0.2-1.7C50.8,49.4,51.1,49,51.4,48.7z
	 M48.8,52.6c0.6,0.1,1.3-0.2,1.6-0.7l8,4.6c-0.1,0.1-0.1,0.3-0.1,0.4l-9.1-1.6c0-0.6-0.3-1.2-0.8-1.6C48.5,53.4,48.7,53,48.8,52.6
	L48.8,52.6z M47.8,58.4c0-0.2,0-0.4,0-0.6l0,0c0-0.2,0-0.4,0-0.6c0.6-0.1,1.1-0.6,1.3-1.2l9.1,1.6c0,0.1,0,0.1,0,0.2
	c0,0.1,0,0.1,0,0.2l-9.1,1.6C48.9,59,48.4,58.6,47.8,58.4z M50.5,63.5c-0.4-0.5-1-0.7-1.6-0.6l0,0c-0.2-0.4-0.3-0.8-0.4-1.2
	c0.5-0.3,0.8-0.9,0.8-1.6l9.1-1.6c0,0.1,0.1,0.3,0.1,0.4L50.5,63.5z M53.1,66.9c-0.5-0.3-1.2-0.3-1.8-0.1c-0.3-0.3-0.6-0.6-0.8-1
	c0.4-0.5,0.5-1.2,0.2-1.7l8-4.6c0.1,0.1,0.2,0.2,0.3,0.3L53.1,66.9z M55.1,69.6L55.1,69.6c-0.4-0.2-0.8-0.4-1.1-0.6
	c0.2-0.6,0-1.3-0.4-1.7l5.9-7.1c0,0,0.1,0,0.1,0.1L56.4,69C55.9,69,55.4,69.3,55.1,69.6z M55.2,75.8l1.1-3.1c0.6,0,1.2-0.3,1.6-0.8
	c0.5,0.1,1,0.2,1.5,0.3c0.3,1,1.3,1.5,2.2,1.3c0.6-0.2,1.1-0.7,1.3-1.3c0.5-0.1,1-0.2,1.5-0.3c0.4,0.5,1,0.8,1.6,0.8l1.2,3.1
	C63.3,77.1,59.1,77.1,55.2,75.8z M92.5,44.9h3.7v4.9h-3.7V44.9z M92.5,53.5h3.7v4.9h-3.7V53.5z M92.5,62.1h3.7V67h-3.7V62.1z
	 M88.8,67h-3.7l0-4.9h3.7V67z M88.8,58.4h-3.7l0-4.9h3.7V58.4z M88.8,49.8h-3.7l0-4.9h3.7V49.8z M96.8,79.4h-4.9v-4.2h4.9V79.4z
	 M103.5,67h-3.7v-4.9h3.7V67z M103.5,58.4h-3.7v-4.9h3.7V58.4z M103.5,49.8h-3.7v-4.9h3.7V49.8z M210,55.2c-0.7-0.7-1.6-1.1-2.6-1.2
	c2.3,3,1.9,7.3-0.9,9.9l-1.9-2.1c1.8-1.7,2-4.5,0.3-6.4c0,0,0,0,0,0c-0.2-0.2-0.4-0.4-0.6-0.6c-0.2,0.2-0.4,0.4-0.6,0.6
	c-1.7,1.8-1.6,4.7,0.3,6.4c0,0,0,0,0,0l-1.9,2.1c-2.8-2.6-3.2-6.9-0.9-9.9c-1,0.1-1.9,0.5-2.6,1.2l-1.9-2.1c1.4-1.3,3.4-2,5.3-1.9
	c0.8,0,1.6,0.2,2.4,0.5c0.8-0.3,1.6-0.5,2.4-0.5c2-0.1,3.9,0.6,5.3,1.9L210,55.2z M257,76.2h-4.3v-5.9h4.3V76.2z M257,65h-4.3v-5.9
	h4.3V65z M257,53.7h-4.3v-5.9h4.3V53.7z M260.7,39.3h3.1v3.6h-3.1V39.3z M264.4,76.2h-4.3v-5.9h4.3V76.2z M264.4,65h-4.3v-5.9h4.3
	V65z M264.4,53.7h-4.3v-5.9h4.3V53.7z M271.8,76.2h-4.3v-5.9h4.3V76.2z M271.8,65h-4.3v-5.9h4.3V65z M271.8,53.7h-4.3v-5.9h4.3V53.7
	z M289.5,76h-4.3V70h4.3V76z M289.5,64.7h-4.3v-5.9h4.3V64.7z M289.5,52.6h-4.3v-5.9h4.3V52.6z M289.5,41.3h-4.3v-5.9h4.3V41.3z
	 M289.5,30.1h-4.3v-5.9h4.3V30.1z M289.5,18.8h-4.3v-5.9h4.3V18.8z M296.8,76h-4.3V70h4.3V76z M296.8,64.7h-4.3v-5.9h4.3V64.7z
	 M296.8,52.6h-4.3v-5.9h4.3V52.6z M296.8,41.3h-4.3v-5.9h4.3V41.3z M296.8,30.1h-4.3v-5.9h4.3V30.1z M296.8,18.8h-4.3v-5.9h4.3V18.8
	z M304.2,76h-4.3l0-5.9h4.3V76z M304.2,64.7h-4.3l0-5.9h4.3V64.7z M304.2,52.6h-4.3l0-5.9h4.3V52.6z M304.2,41.3h-4.3l0-5.9h4.3
	V41.3z M304.2,30.1h-4.3l0-5.9h4.3V30.1z M304.2,18.8h-4.3l0-5.9h4.3V18.8z M320.3,76.2H316v-5.9h4.3V76.2z M320.3,65H316v-5.9h4.3
	V65z M320.3,53.7H316v-5.9h4.3V53.7z M327.7,76.2h-4.3v-5.9h4.3V76.2z M327.7,65h-4.3v-5.9h4.3V65z M327.7,53.7h-4.3v-5.9h4.3V53.7z
	 M327.7,42.7h-4.3v-5.1h4.3V42.7z M335.1,76.2h-4.3v-5.9h4.3V76.2z M335.1,65h-4.3v-5.9h4.3V65z M335.1,53.7h-4.3v-5.9h4.3V53.7z
	 M352.1,44.9h3.7v4.9h-3.7V44.9z M352.1,53.5h3.7v4.9h-3.7V53.5z M352.1,62.1h3.7V67h-3.7V62.1z M348.4,67h-3.7l0-4.9h3.7V67z
	 M348.4,58.4h-3.7l0-4.9h3.7V58.4z M348.4,49.8h-3.7l0-4.9h3.7V49.8z M356.4,79.4h-4.9v-4.2h4.9V79.4z"/>
</svg>
