<?xml version="1.0" encoding="utf-8"?>
<!-- Generator: Adobe Illustrator 23.0.4, SVG Export Plug-In . SVG Version: 6.00 Build 0)  -->
<svg version="1.1" id="レイヤー1" xmlns="http://www.w3.org/2000/svg" xmlns:xlink="http://www.w3.org/1999/xlink" x="0px"
	 y="0px" viewBox="0 0 5000 3000" style="enable-background:new 0 0 5000 3000;" xml:space="preserve">
<style type="text/css">
	.st0{fill:#2B86CD;}
</style>
<path class="st0" d="M4961,1786.4v-0.3v-154.7l-49.8-49.8v-25.9h-25.9v25.9l-49.8,49.8v154.7h-16.9V1615h-112.8v171.2H4674v-93.9
	v-17.9v-219.1h-32.3v-32.9H4581v32.9h-32.3v219.1v17.9v93.9h-93.9v-166.6c-21.9,0-39.7-17.7-39.7-39.5c0-12.7-10.3-22.9-23-22.9
	s-23,10.3-23,22.9c0,21.8-17.8,39.5-39.7,39.5v166.6h-13.7v-154.7l-49.8-49.8v-25.9H4240v25.9l-49.8,49.8v154.7h-20.8v-167
	c-21.9,0-39.7-17.7-39.7-39.4c0-12.7-10.3-22.9-23.1-22.9c-12.7,0-23.1,10.2-23.1,22.9c0,21.8-17.8,39.4-39.7,39.4v167.3h-16.2
	v-94.6V1674v-219.1h-32.3V1422h-60.9v32.9h-32.3V1674v17.9v94.6h-23.5v-155.3l-49.8-49.8v-25.9H3803v25.9l-49.8,49.8v141.1
	L3609.1,1645c-11.9-10.6-36-17.1-62-16.8c-26,0.2-49.5,7.1-60.6,17.9l-95,87.4c-6.4,6.1-19.6,10.2-34.5,10.8
	c-14.9,0.5-29.3-2.6-37.7-8.3l-47.9-33.2c-13.4-9.1-36.3-14.2-60.2-13.7c-24,0.5-45.5,6.8-56.8,16.5l-53.3,45.5V1615h-112.8v171.6
	h-24.9c0-0.1,0-0.1,0-0.2h-142h-41.9H2696h-21.9h-802.8v-99.8v-17.3v-212.6H1840v-32h-59.1v32h-31.3v212.6v17.3v99.8h-27.4v-174.7
	h-109.4v174.7H1573c0.5-0.9,0.8-1.9,0.8-2.9c0-3.1-2.5-5.7-5.6-5.7h-19.3v-21.4c-4.7,3-9.8,5.6-15.1,7.7l-5.5-15.2
	c2.1-1.8,3.3-4.6,3-7.4c2.2-1.1,4.4-2.4,6.4-3.7c3.2,2.2,7.5,2.2,10.6-0.4s3.9-6.9,2.3-10.4c1.7-1.8,3.3-3.7,4.7-5.6
	c3.7,1,7.9-0.5,9.9-4s1.3-7.8-1.4-10.5c1-2.3,1.8-4.6,2.6-7c3.8-0.4,7.1-3.2,7.8-7.2c0.7-4-1.4-7.8-5-9.4c0.1-1.2,0.2-2.4,0.2-3.7
	c0-1.2-0.1-2.5-0.2-3.7c3.5-1.6,5.7-5.4,5-9.4s-4-6.8-7.8-7.2c-0.7-2.4-1.6-4.7-2.6-7c2.7-2.7,3.4-7,1.4-10.5s-6.1-5.1-9.9-4
	c-1.5-2-3.1-3.8-4.7-5.6c1.7-3.5,0.9-7.8-2.3-10.4c-3.1-2.6-7.5-2.7-10.6-0.4c-2.1-1.3-4.2-2.6-6.4-3.7c0.3-3.9-1.9-7.6-5.7-9
	c-3.8-1.4-7.9,0.1-10.1,3.2c-2.4-0.6-4.8-1-7.3-1.3c-1-3.7-4.4-6.5-8.4-6.5s-7.4,2.8-8.4,6.5c-2.5,0.3-4.9,0.7-7.3,1.3
	c-2.2-3.2-6.3-4.6-10.1-3.2c-3.8,1.4-6,5.1-5.7,9c-2.2,1.1-4.3,2.3-6.4,3.7c-3.2-2.2-7.5-2.2-10.6,0.4s-3.9,6.9-2.3,10.4
	c-1.7,1.8-3.2,3.7-4.7,5.6c-3.8-1-7.9,0.5-9.9,4s-1.3,7.8,1.4,10.5c-1,2.3-1.8,4.6-2.5,7c-3.8,0.4-7.1,3.2-7.8,7.2
	c-0.7,4,1.4,7.8,5,9.4c-0.1,1.2-0.2,2.4-0.2,3.7c0,1.2,0.1,2.5,0.2,3.7c-3.5,1.6-5.7,5.4-5,9.4s4,6.8,7.8,7.2c0.7,2.4,1.6,4.7,2.5,7
	c-2.7,2.7-3.4,7-1.4,10.5s6.1,5.1,9.9,4c1.5,2,3.1,3.8,4.7,5.6c-1.7,3.5-0.9,7.8,2.3,10.4c3.1,2.6,7.5,2.7,10.6,0.4
	c2.1,1.3,4.2,2.6,6.4,3.7c-0.3,2.8,0.9,5.6,3,7.4l-5.5,15.2c-5.3-2.1-10.4-4.7-15.1-7.8v21.4h-19.6c-3.1,0-5.7,2.5-5.7,5.7
	c0,1.1,0.3,2.1,0.8,2.9H1382c-15.1-64.3-49.8-242.5,1.4-337.9h-91.5c51.2,95.2,16.4,273.4,1.4,337.9h-49.7v-94.6v-17.9v-219.1h-32.3
	v-32.9h-60.9v32.9h-32.3v219.1v17.9v94.8h-23.5v-155.3l-49.8-49.8v-25.9h-25.9v25.9l-49.8,49.8v155.1h-26.9v-171.5H829.5v171.5
	h-31.8V1692v-17.9V1455h-32.3v-32.9h-60.9v32.9h-32.3v219.1v17.9v94.3h-13.9v-167c-21.9,0-39.7-17.7-39.7-39.4
	c0-12.7-10.3-22.9-23.1-22.9c-12.7,0-23.1,10.2-23.1,22.9c0,21.8-17.8,39.4-39.7,39.4v167H519v-155.1l-49.8-49.8v-25.9h-25.9v25.9
	l-49.8,49.8v155.1h-72.6v-93.9v-17.9v-219.1h-32.3v-32.9h-60.9v32.9h-32.3v219.1v17.9v93.9h-18.7v-154.7l-49.8-49.8V1556H101v25.9
	l-49.8,49.8v154.7H0v102.3h369.7h674.1h1987.5h763.9h281h101.2H5000v-102.3H4961z M1833.6,1481.8h19.3v26.4h-19.3V1481.8z
	 M1833.6,1532.1h19.3v26.4h-19.3V1532.1z M1833.6,1582.3h19.3v26.4h-19.3V1582.3z M1833.6,1632.5h19.3v26.4h-19.3V1632.5z
	 M1833.6,1686.6h19.3v26.1h-19.3V1686.6z M1833.6,1736.6h19.3v26.4h-19.3V1736.6z M1800.8,1481.8h19.3v26.4h-19.3V1481.8z
	 M1800.8,1532.1h19.3v26.4h-19.3V1532.1z M1800.8,1582.3h19.3v26.4h-19.3V1582.3z M1800.8,1632.5h19.3v26.4h-19.3V1632.5z
	 M1800.8,1686.6h19.3v26.1h-19.3V1686.6z M1800.8,1736.6h19.3v26.4h-19.3V1736.6z M1768,1481.8h19.3v26.4H1768V1481.8z M1768,1532.1
	h19.3v26.4H1768V1532.1z M1768,1582.3h19.3v26.4H1768V1582.3z M1768,1632.5h19.3v26.4H1768V1632.5z M1768,1686.6h19.3v26.1H1768
	V1686.6z M1768,1736.6h19.3v26.4H1768V1736.6z M90.4,1772.2H70.5V1745h19.9V1772.2z M90.4,1720.4H70.5v-27.2h19.9V1720.4z
	 M90.4,1668.6H70.5v-27.2h19.9V1668.6z M107.3,1602.3h14.1v16.5h-14.1V1602.3z M124.3,1772.2h-19.9V1745h19.9V1772.2z M124.3,1720.4
	h-19.9v-27.2h19.9V1720.4z M124.3,1668.6h-19.9v-27.2h19.9V1668.6z M158.1,1772.2h-19.9V1745h19.9V1772.2z M158.1,1720.4h-19.9
	v-27.2h19.9V1720.4z M158.1,1668.6h-19.9v-27.2h19.9V1668.6z M234.6,1770.9h-19.9v-27.2h19.9V1770.9z M234.6,1719.1h-19.9v-26.9
	h19.9V1719.1z M234.6,1663.6h-19.9v-27.2h19.9V1663.6z M234.6,1611.9h-19.9v-27.2h19.9V1611.9z M234.6,1560.1h-19.9v-27.2h19.9
	V1560.1z M234.6,1508.3h-19.9v-27.2h19.9V1508.3z M268.4,1770.9h-19.9v-27.2h19.9V1770.9z M268.4,1719.1h-19.9v-26.9h19.9V1719.1z
	 M268.4,1663.6h-19.9v-27.2h19.9V1663.6z M268.4,1611.9h-19.9v-27.2h19.9V1611.9z M268.4,1560.1h-19.9v-27.2h19.9V1560.1z
	 M268.4,1508.3h-19.9v-27.2h19.9V1508.3z M302.3,1770.9h-19.9v-27.2h19.9V1770.9z M302.3,1719.1h-19.9v-26.9h19.9V1719.1z
	 M302.3,1663.6h-19.9v-27.2h19.9V1663.6z M302.3,1611.9h-19.9v-27.2h19.9V1611.9z M302.3,1560.1h-19.9v-27.2h19.9V1560.1z
	 M302.3,1508.3h-19.9v-27.2h19.9V1508.3z M432.6,1771.8h-19.9v-27.2h19.9V1771.8z M432.6,1720.1h-19.9v-27.3h19.9V1720.1z
	 M432.6,1668.3h-19.9V1641h19.9V1668.3z M449.5,1602h14.1v16.5h-14.1V1602z M466.4,1771.8h-19.9v-27.2h19.9V1771.8z M466.4,1720.1
	h-19.9v-27.3h19.9V1720.1z M466.4,1668.3h-19.9V1641h19.9V1668.3z M500.3,1771.8h-19.9v-27.2h19.9V1771.8z M500.3,1720.1h-19.9
	v-27.3h19.9V1720.1z M500.3,1668.3h-19.9V1641h19.9V1668.3z M571.8,1771.8h-19.9v-27.2h19.9V1771.8z M571.8,1720.1h-19.9v-27.3h19.9
	V1720.1z M571.8,1668.3h-19.9V1641h19.9V1668.3z M605.6,1771.8h-19.9v-27.2h19.9V1771.8z M605.6,1720.1h-19.9v-27.3h19.9V1720.1z
	 M605.6,1668.3h-19.9V1641h19.9V1668.3z M605.6,1617.8h-19.9v-23.2h19.9V1617.8z M639.5,1771.8h-19.9v-27.2h19.9V1771.8z
	 M639.5,1720.1h-19.9v-27.3h19.9V1720.1z M639.5,1668.3h-19.9V1641h19.9V1668.3z M711.1,1770.5h-19.9v-27.2h19.9V1770.5z
	 M711.1,1718.7h-19.9v-26.9h19.9V1718.7z M711.1,1663.2h-19.9V1636h19.9V1663.2z M711.1,1611.6h-19.9v-27.3h19.9V1611.6z
	 M711.1,1559.8h-19.9v-27.3h19.9V1559.8z M711.1,1507.9h-19.9v-27.2h19.9V1507.9z M744.9,1770.5H725v-27.2h19.9V1770.5z
	 M744.9,1718.7H725v-26.9h19.9V1718.7z M744.9,1663.2H725V1636h19.9V1663.2z M744.9,1611.6H725v-27.3h19.9V1611.6z M744.9,1559.8
	H725v-27.3h19.9V1559.8z M744.9,1507.9H725v-27.2h19.9V1507.9z M778.8,1770.5h-19.9v-27.2h19.9V1770.5z M778.8,1718.7h-19.9v-26.9
	h19.9V1718.7z M778.8,1663.2h-19.9V1636h19.9V1663.2z M778.8,1611.6h-19.9v-27.3h19.9V1611.6z M778.8,1559.8h-19.9v-27.3h19.9
	V1559.8z M778.8,1507.9h-19.9v-27.2h19.9V1507.9z M877.5,1627.7h16.9v22.6h-16.9V1627.7z M877.5,1667.2h16.9v22.6h-16.9V1667.2z
	 M877.5,1706.7h16.9v22.6h-16.9V1706.7z M860.5,1729.3h-16.9v-22.6h16.9V1729.3z M860.5,1689.8h-16.9v-22.6h16.9V1689.8z
	 M860.5,1650.3h-16.9v-22.6h16.9V1650.3z M897.2,1786.2h-22.6v-19.3h22.6V1786.2z M928.1,1729.3h-16.9v-22.6h16.9V1729.3z
	 M928.1,1689.8h-16.9v-22.6h16.9V1689.8z M928.1,1650.3h-16.9v-22.6h16.9V1650.3z M1008,1771.8h-19.9v-27.2h19.9V1771.8z
	 M1008,1720.1h-19.9v-27.3h19.9V1720.1z M1008,1668.3h-19.9V1641h19.9V1668.3z M1024.8,1602h14.1v16.5h-14.1V1602z M1041.9,1771.8
	H1022v-27.2h19.9V1771.8z M1041.9,1720.1H1022v-27.3h19.9V1720.1z M1041.9,1668.3H1022V1641h19.9V1668.3z M1075.7,1771.8h-19.9
	v-27.2h19.9V1771.8z M1075.7,1720.1h-19.9v-27.3h19.9V1720.1z M1075.7,1668.3h-19.9V1641h19.9V1668.3z M1156.9,1770.5H1137v-27.2
	h19.9V1770.5z M1156.9,1718.7H1137v-26.9h19.9V1718.7z M1156.9,1663.2H1137V1636h19.9V1663.2z M1156.9,1611.5H1137v-27.3h19.9
	V1611.5z M1156.9,1559.8H1137v-27.3h19.9V1559.8z M1156.9,1507.9H1137v-27.2h19.9V1507.9z M1190.8,1770.5h-19.9v-27.2h19.9V1770.5z
	 M1190.8,1718.7h-19.9v-26.9h19.9V1718.7z M1190.8,1663.2h-19.9V1636h19.9V1663.2z M1190.8,1611.5h-19.9v-27.3h19.9V1611.5z
	 M1190.8,1559.8h-19.9v-27.3h19.9V1559.8z M1190.8,1507.9h-19.9v-27.2h19.9V1507.9z M1224.6,1770.5h-19.9v-27.2h19.9V1770.5z
	 M1224.6,1718.7h-19.9v-26.9h19.9V1718.7z M1224.6,1663.2h-19.9V1636h19.9V1663.2z M1224.6,1611.5h-19.9v-27.3h19.9V1611.5z
	 M1224.6,1559.8h-19.9v-27.3h19.9V1559.8z M1224.6,1507.9h-19.9v-27.2h19.9V1507.9z M1534.3,1733.3c-1.7,1.1-3.5,2.1-5.3,3.1
	c-1.6-1.8-3.9-2.8-6.3-2.8l-15.4-42.2c0.1-0.1,0.2-0.1,0.4-0.2l28.4,33.9C1534,1727.3,1533.4,1730.5,1534.3,1733.3z M1546.6,1722.9
	c-2.6-1.3-5.8-1.3-8.4,0.3l-28.4-33.9c0.5-0.5,0.9-1,1.3-1.6l38.3,22.1c-1.1,2.8-0.6,6,1.2,8.4
	C1549.3,1719.8,1548,1721.4,1546.6,1722.9z M1558.7,1704.2c-3-0.4-6,0.8-7.9,3.1l-38.3-22.1c0.3-0.6,0.5-1.3,0.7-2l43.6,7.7
	c0,3.1,1.5,5.9,4,7.5C1560.2,1700.5,1559.5,1702.4,1558.7,1704.2z M1563.7,1679.5c0,1-0.1,2-0.2,3.1c-2.9,0.7-5.3,2.8-6.3,5.6
	l-43.6-7.7c0-0.3,0.1-0.7,0.1-1c0-0.4-0.1-0.7-0.1-1l43.6-7.7c1,2.9,3.4,5,6.3,5.7C1563.6,1677.4,1563.7,1678.4,1563.7,1679.5z
	 M1550.8,1651.6c2,2.4,5,3.5,7.9,3.1c0.8,1.9,1.5,3.8,2.1,5.8c-2.5,1.6-4.1,4.4-4,7.5l-43.6,7.7c-0.2-0.7-0.4-1.3-0.7-2
	L1550.8,1651.6z M1538.2,1635.8c2.6,1.6,5.8,1.6,8.4,0.3c1.4,1.5,2.7,3.1,4,4.7c-1.8,2.4-2.3,5.5-1.2,8.3l-38.3,22.1
	c-0.4-0.6-0.8-1.1-1.3-1.6L1538.2,1635.8z M1529,1622.6c1.8,0.9,3.6,2,5.3,3.1c-0.9,2.8-0.2,6,1.7,8.3l-28.4,33.9
	c-0.6-0.4-1.2-0.7-1.8-1l15.1-41.6C1523.9,1625.8,1527,1624.8,1529,1622.6z M1507.8,1616c2,0.3,4.1,0.6,6,1.1c0.1,3,1.8,5.7,4.5,7.2
	l-15.1,41.6c-0.7-0.2-1.3-0.3-2-0.3v-44.4h-0.1C1504.1,1620.7,1506.6,1618.7,1507.8,1616z M1502,1693.4l15.3,42
	c-2.1,1.6-3.4,4-3.5,6.5c-2,0.4-4,0.8-6,1.1c-1.1-2.7-3.6-4.7-6.7-5.2v-44.3h0C1501.4,1693.5,1501.7,1693.5,1502,1693.4z
	 M1485.6,1617.1c2-0.4,4-0.8,6-1.1c1.2,2.7,3.7,4.7,6.7,5.2v44.3c-0.7,0.1-1.4,0.2-2.1,0.3l-15.1-41.6
	C1483.8,1622.8,1485.4,1620,1485.6,1617.1z M1498.3,1693.5v44.3c-3,0.5-5.5,2.5-6.7,5.2c-2-0.3-4.1-0.6-6-1.1
	c-0.1-2.6-1.4-4.9-3.4-6.5l15.3-42C1497.7,1693.4,1498,1693.4,1498.3,1693.5z M1465.1,1625.7c1.7-1.1,3.5-2.1,5.3-3.1
	c2,2.2,5,3.2,8,2.6l15.1,41.6c-0.6,0.3-1.3,0.6-1.8,1l-28.4-33.9C1465.3,1631.6,1465.9,1628.5,1465.1,1625.7z M1452.7,1636.1
	c2.6,1.3,5.8,1.3,8.4-0.3l28.4,33.9c-0.5,0.5-0.9,1-1.3,1.6l-38.3-22.1c1.1-2.8,0.6-6-1.2-8.4
	C1450,1639.1,1451.3,1637.6,1452.7,1636.1z M1440.6,1654.7c3,0.4,6-0.8,7.9-3.2l38.3,22.1c-0.3,0.6-0.5,1.3-0.7,2l-43.6-7.7
	c0-3.1-1.5-5.9-4-7.5C1439.1,1658.5,1439.8,1656.6,1440.6,1654.7z M1435.8,1682.5c-0.1-1-0.2-2-0.2-3s0.1-2,0.2-3.1
	c2.9-0.7,5.3-2.8,6.3-5.7l43.6,7.7c0,0.4-0.1,0.7-0.1,1c0,0.4,0.1,0.7,0.1,1l-43.6,7.7C1441.1,1685.2,1438.7,1683.1,1435.8,1682.5z
	 M1440.6,1704.2c-0.8-1.9-1.5-3.8-2.1-5.7c2.5-1.6,4.1-4.4,4-7.5l43.6-7.7c0.2,0.7,0.4,1.3,0.7,2l-38.3,22.1
	C1446.6,1705,1443.6,1703.8,1440.6,1704.2z M1461.1,1723.2c-2.6-1.5-5.8-1.6-8.4-0.3c-1.4-1.5-2.7-3.1-4-4.7
	c1.8-2.4,2.3-5.5,1.2-8.4l38.3-22.1c0.4,0.6,0.8,1.1,1.3,1.6L1461.1,1723.2z M1470.4,1736.4c-1.8-0.9-3.6-2-5.3-3.1
	c0.9-2.8,0.2-6-1.8-8.3l28.4-33.9c0.1,0.1,0.3,0.2,0.4,0.2l-15.4,42.2C1474.3,1733.6,1472,1734.6,1470.4,1736.4z M1499.6,1770.8
	c-10.1,0-19.7-1.7-28.7-4.7l5.5-15.1c3,0.1,5.8-1.2,7.5-3.7c2.4,0.6,4.8,1,7.3,1.3c1,3.7,4.4,6.5,8.4,6.5s7.4-2.8,8.4-6.5
	c2.5-0.3,4.9-0.7,7.3-1.3c1.7,2.5,4.6,3.8,7.6,3.7l5.5,15.1C1519.3,1769.1,1509.7,1770.8,1499.6,1770.8z M1692.1,1624.5h16.4v21.9
	h-16.4V1624.5z M1692.1,1662.8h16.4v21.9h-16.4V1662.8z M1692.1,1701.1h16.4v21.9h-16.4V1701.1z M1659.2,1624.5h16.4v21.9h-16.4
	V1624.5z M1659.2,1662.8h16.4v21.9h-16.4V1662.8z M1659.2,1701.1h16.4v21.9h-16.4V1701.1z M1626.4,1624.5h16.4v21.9h-16.4V1624.5z
	 M1626.4,1662.8h16.4v21.9h-16.4V1662.8z M1626.4,1701.1h16.4v21.9h-16.4V1701.1z M1656.5,1759.5h21.9v26.9h-21.9V1759.5z
	 M3019.6,1729.3h-16.9v-22.6h16.9V1729.3z M3019.6,1689.8h-16.9v-22.6h16.9V1689.8z M3019.6,1650.3h-16.9v-22.6h16.9V1650.3z
	 M3036.6,1627.7h16.9v22.6h-16.9V1627.7z M3036.6,1667.2h16.9v22.6h-16.9V1667.2z M3036.6,1706.7h16.9v22.6h-16.9V1706.7z
	 M3056.3,1786.4h-22.6v-19.5h22.6V1786.4z M3087.3,1729.3h-16.9v-22.6h16.9V1729.3z M3087.3,1689.8h-16.9v-22.6h16.9V1689.8z
	 M3087.3,1650.3h-16.9v-22.6h16.9V1650.3z M3576.3,1674.9c-3.3-3-7.5-4.9-11.9-5.4c10.6,13.7,9.1,33.6-4,45.7l-8.9-9.7
	c8.5-7.8,9-20.9,1.2-29.4c-0.9-1-1.9-1.9-2.9-2.6c-1,0.8-2,1.6-2.9,2.6c-7.8,8.5-7.2,21.6,1.2,29.4l-8.9,9.7
	c-13-12-14.5-31.8-4-45.7c-4.4,0.5-8.5,2.3-11.9,5.4l-8.9-9.7c6.7-6.1,15.4-9.2,24.4-8.9c3.8,0.2,7.5,0.9,10.9,2.3
	c3.4-1.3,7.1-2.1,10.9-2.3c9.1-0.4,17.7,2.8,24.4,8.9L3576.3,1674.9z M3792.1,1771.8h-19.9v-27.2h19.9V1771.8z M3792.1,1720.1h-19.9
	v-27.3h19.9V1720.1z M3792.1,1668.3h-19.9V1641h19.9V1668.3z M3809,1602h14.1v16.5H3809V1602z M3825.9,1771.8H3806v-27.2h19.9
	V1771.8z M3825.9,1720.1H3806v-27.3h19.9V1720.1z M3825.9,1668.3H3806V1641h19.9V1668.3z M3859.8,1771.8h-19.9v-27.2h19.9V1771.8z
	 M3859.8,1720.1h-19.9v-27.3h19.9V1720.1z M3859.8,1668.3h-19.9V1641h19.9V1668.3z M3941.1,1770.5h-19.9v-27.2h19.9V1770.5z
	 M3941.1,1718.7h-19.9v-26.9h19.9V1718.7z M3941.1,1663.2h-19.9V1636h19.9V1663.2z M3941.1,1611.5h-19.9v-27.3h19.9V1611.5z
	 M3941.1,1559.8h-19.9v-27.3h19.9V1559.8z M3941.1,1507.9h-19.9v-27.2h19.9V1507.9z M3974.9,1770.5H3955v-27.2h19.9V1770.5z
	 M3974.9,1718.7H3955v-26.9h19.9V1718.7z M3974.9,1663.2H3955V1636h19.9V1663.2z M3974.9,1611.5H3955v-27.3h19.9V1611.5z
	 M3974.9,1559.8H3955v-27.3h19.9V1559.8z M3974.9,1507.9H3955v-27.2h19.9V1507.9z M4008.7,1770.5h-19.9v-27.2h19.9V1770.5z
	 M4008.7,1718.7h-19.9v-26.9h19.9V1718.7z M4008.7,1663.2h-19.9V1636h19.9V1663.2z M4008.7,1611.5h-19.9v-27.3h19.9V1611.5z
	 M4008.7,1559.8h-19.9v-27.3h19.9V1559.8z M4008.7,1507.9h-19.9v-27.2h19.9V1507.9z M4082.7,1771.8h-19.9v-27.2h19.9V1771.8z
	 M4082.7,1720.1h-19.9v-27.3h19.9V1720.1z M4082.7,1668.3h-19.9V1641h19.9V1668.3z M4116.6,1771.8h-19.9v-27.2h19.9V1771.8z
	 M4116.6,1720.1h-19.9v-27.3h19.9V1720.1z M4116.6,1668.3h-19.9V1641h19.9V1668.3z M4116.6,1617.8h-19.9v-23.2h19.9V1617.8z
	 M4150.4,1771.8h-19.9v-27.2h19.9V1771.8z M4150.4,1720.1h-19.9v-27.3h19.9V1720.1z M4150.4,1668.3h-19.9V1641h19.9V1668.3z
	 M4229,1772.2h-19.9V1745h19.9V1772.2z M4229,1720.4h-19.9v-27.2h19.9V1720.4z M4229,1668.6h-19.9v-27.2h19.9V1668.6z
	 M4245.9,1602.3h14.1v16.5h-14.1V1602.3z M4262.9,1772.2H4243V1745h19.9V1772.2z M4262.9,1720.4H4243v-27.2h19.9V1720.4z
	 M4262.9,1668.6H4243v-27.2h19.9V1668.6z M4296.7,1772.2h-19.9V1745h19.9V1772.2z M4296.7,1720.4h-19.9v-27.2h19.9V1720.4z
	 M4296.7,1668.6h-19.9v-27.2h19.9V1668.6z M4368.2,1772.2h-19.9V1745h19.9V1772.2z M4368.2,1720.4h-19.9v-27.2h19.9V1720.4z
	 M4368.2,1668.6h-19.9v-27.2h19.9V1668.6z M4402,1772.2h-19.9V1745h19.9V1772.2z M4402,1720.4h-19.9v-27.2h19.9V1720.4z
	 M4402,1668.6h-19.9v-27.2h19.9V1668.6z M4402,1618.2h-19.9V1595h19.9V1618.2z M4435.9,1772.2H4416V1745h19.9V1772.2z
	 M4435.9,1720.4H4416v-27.2h19.9V1720.4z M4435.9,1668.6H4416v-27.2h19.9V1668.6z M4587.5,1770.9h-19.9v-27.2h19.9V1770.9z
	 M4587.5,1719.1h-19.9v-26.9h19.9V1719.1z M4587.5,1663.6h-19.9v-27.2h19.9V1663.6z M4587.5,1611.9h-19.9v-27.2h19.9V1611.9z
	 M4587.5,1560.1h-19.9v-27.2h19.9V1560.1z M4587.5,1508.3h-19.9v-27.2h19.9V1508.3z M4621.4,1770.9h-19.9v-27.2h19.9V1770.9z
	 M4621.4,1719.1h-19.9v-26.9h19.9V1719.1z M4621.4,1663.6h-19.9v-27.2h19.9V1663.6z M4621.4,1611.9h-19.9v-27.2h19.9V1611.9z
	 M4621.4,1560.1h-19.9v-27.2h19.9V1560.1z M4621.4,1508.3h-19.9v-27.2h19.9V1508.3z M4655.2,1770.9h-19.9v-27.2h19.9V1770.9z
	 M4655.2,1719.1h-19.9v-26.9h19.9V1719.1z M4655.2,1663.6h-19.9v-27.2h19.9V1663.6z M4655.2,1611.9h-19.9v-27.2h19.9V1611.9z
	 M4655.2,1560.1h-19.9v-27.2h19.9V1560.1z M4655.2,1508.3h-19.9v-27.2h19.9V1508.3z M4753.8,1628.1h16.9v22.6h-16.9V1628.1z
	 M4753.8,1667.6h16.9v22.6h-16.9V1667.6z M4753.8,1707.1h16.9v22.6h-16.9V1707.1z M4736.9,1729.7H4720v-22.6h16.9V1729.7z
	 M4736.9,1690.2H4720v-22.6h16.9V1690.2z M4736.9,1650.7H4720v-22.6h16.9V1650.7z M4773.6,1786.1H4751v-18.9h22.6V1786.1z
	 M4804.6,1729.7h-16.9v-22.6h16.9V1729.7z M4804.6,1690.2h-16.9v-22.6h16.9V1690.2z M4804.6,1650.7h-16.9v-22.6h16.9V1650.7z
	 M4874.4,1772.2h-19.9V1745h19.9V1772.2z M4874.4,1720.4h-19.9v-27.2h19.9V1720.4z M4874.4,1668.6h-19.9v-27.2h19.9V1668.6z
	 M4891.3,1602.3h14.1v16.5h-14.1V1602.3z M4908.3,1772.2h-19.9V1745h19.9V1772.2z M4908.3,1720.4h-19.9v-27.2h19.9V1720.4z
	 M4908.3,1668.6h-19.9v-27.2h19.9V1668.6z M4942.1,1772.2h-19.9V1745h19.9V1772.2z M4942.1,1720.4h-19.9v-27.2h19.9V1720.4z
	 M4942.1,1668.6h-19.9v-27.2h19.9V1668.6z"/>
</svg>
